<?xml version="1.0" encoding="utf-8"?>
<!-- Generator: Adobe Illustrator 22.0.0, SVG Export Plug-In . SVG Version: 6.00 Build 0)  -->
<svg version="1.1" id="vitan" xmlns="http://www.w3.org/2000/svg" xmlns:xlink="http://www.w3.org/1999/xlink" x="0px" y="0px"
	 viewBox="0 0 1080 1080" style="enable-background:new 0 0 1080 1080;" xml:space="preserve">
<style type="text/css">
	.st0{fill:#F45A8D;}
	.st1{fill:#FFFFFF;}
</style>
<path class="st0" d="M1021.6,986.6H52.1c-5.5,0-10-4.5-10-10V102.1c0-5.5,4.5-10,10-10h969.5c5.5,0,10,4.5,10,10v874.5
	C1031.6,982.1,1027.1,986.6,1021.6,986.6z"/>
<path class="st1" d="M923.6,890.1H150.1c-5.5,0-10-4.5-10-10V199.6c0-5.5,4.5-10,10-10h773.5c5.5,0,10,4.5,10,10v680.5
	C933.6,885.6,929.1,890.1,923.6,890.1z"/>
<path d="M417.1,539.1c-1.3-1.4-2.4-2.6-3.6-3.7c-39.7-39.7-79.4-79.3-119-119c-17.4-17.4-15.5-43.8,3.8-57.7
	c13.3-9.6,31.6-9.3,44.5,0.8c1.8,1.4,3.5,3,5.2,4.7c49,48.9,97.9,97.9,146.8,146.8c11.9,11.9,16,25.8,9.8,41.8
	c-1.9,4.9-5.2,9.8-8.9,13.5c-49.4,49.7-98.9,99.2-148.5,148.7c-15.4,15.4-38.7,15.6-53.6,0.9c-15.1-14.9-14.8-38.1,0.9-53.9
	c39.5-39.6,79.1-79.1,118.6-118.7C414.5,541.9,415.7,540.5,417.1,539.1z"/>
<path d="M794.1,695.8c-0.3,0.8-0.6,1.5-0.8,2.3c-5.1,19.6-17.9,29.9-37.6,29.9c-38.4,0.1-76.8,0-115.2,0c-32.4,0-64.8,0.2-97.2-0.2
	c-19.3-0.2-34.6-17-34.8-37c-0.2-20.7,15.6-37.6,35.9-38c11.3-0.2,22.6-0.1,33.9-0.1c57.1,0,114.2,0.4,171.3-0.2
	c20.1-0.2,38.2,6.3,44.6,32.2C794.1,688.5,794.1,692.1,794.1,695.8z"/>
</svg>
